name ./resultDataOpenSim/trcMotMarkerGrf/sub10/grf-01-01.mot
datacolumns 19
datarows 25
range 0.95600000 1.05200000
endheader

                time	     ground_force_vx	     ground_force_vy	     ground_force_vz	     ground_force_px	     ground_force_py	     ground_force_pz	   l_ground_force_vx	   l_ground_force_vy	   l_ground_force_vz	   l_ground_force_px	   l_ground_force_py	   l_ground_force_pz	     ground_torque_x	     ground_torque_y	     ground_torque_z	   l_ground_torque_x	   l_ground_torque_y	   l_ground_torque_z	
          0.95600000	          0.00000000	          0.00000000	          0.00000000	          0.00000000	          0.00000000	          0.00000000	          5.05350743	        466.08260968	         21.88155400	         -0.05978780	          0.00000001	         -0.14063720	          0.00000000	          0.00000000	          0.00000000	          0.00000000	         -2.81989999	          0.00000000	
          0.96000000	          0.00000000	          0.00000000	          0.00000000	          0.00000000	          0.00000000	          0.00000000	          6.04694393	        467.64641982	         21.91665563	         -0.05810596	          0.00000001	         -0.14055962	          0.00000000	          0.00000000	          0.00000000	          0.00000000	         -2.95204331	          0.00000000	
          0.96400000	          0.00000000	          0.00000000	          0.00000000	          0.00000000	          0.00000000	          0.00000000	          7.11940117	        470.00143091	         22.07290286	         -0.05636001	          0.00000001	         -0.14035562	          0.00000000	          0.00000000	          0.00000000	          0.00000000	         -3.09183558	          0.00000000	
          0.96800000	          0.00000000	          0.00000000	          0.00000000	          0.00000000	          0.00000000	          0.00000000	          8.28363601	        473.10382608	         22.31479877	         -0.05454966	          0.00000001	         -0.14006452	          0.00000000	          0.00000000	          0.00000000	          0.00000000	         -3.24252392	          0.00000000	
          0.97200000	          0.00000000	          0.00000000	          0.00000000	          0.00000000	          0.00000000	          0.00000000	          9.52795951	        476.83541877	         22.58399117	         -0.05274073	          0.00000001	         -0.13977973	          0.00000000	          0.00000000	          0.00000000	          0.00000000	         -3.40643463	          0.00000000	
          0.97600000	          0.00000000	          0.00000000	          0.00000000	          0.00000000	          0.00000000	          0.00000000	         10.83334541	        481.03581431	         22.82217400	         -0.05102515	          0.00000001	         -0.13961386	          0.00000000	          0.00000000	          0.00000000	          0.00000000	         -3.58374305	          0.00000000	
          0.98000000	          0.00000000	          0.00000000	          0.00000000	          0.00000000	          0.00000000	          0.00000000	         12.18006953	        485.53124747	         23.00354679	         -0.04947513	          0.00000001	         -0.13964799	          0.00000000	          0.00000000	          0.00000000	          0.00000000	         -3.77184762	          0.00000000	
          0.98400000	          0.00000000	          0.00000000	          0.00000000	          0.00000000	          0.00000000	          0.00000000	         13.54009236	        490.16795251	         23.15168832	         -0.04809677	          0.00000001	         -0.13989689	          0.00000000	          0.00000000	          0.00000000	          0.00000000	         -3.96556903	          0.00000000	
          0.98800000	          0.00000000	          0.00000000	          0.00000000	          0.00000000	          0.00000000	          0.00000000	         14.88594441	        494.85497825	         23.32821688	         -0.04682352	          0.00000001	         -0.14029956	          0.00000000	          0.00000000	          0.00000000	          0.00000000	         -4.15799624	          0.00000000	
          0.99200000	          0.00000000	          0.00000000	          0.00000000	          0.00000000	          0.00000000	          0.00000000	         16.21422286	        499.59912399	         23.60464996	         -0.04552948	          0.00000001	         -0.14075108	          0.00000000	          0.00000000	          0.00000000	          0.00000000	         -4.34167952	          0.00000000	
          0.99600000	          0.00000000	          0.00000000	          0.00000000	          0.00000000	          0.00000000	          0.00000000	         17.54155689	        504.49264691	         24.03806581	         -0.04407666	          0.00000001	         -0.14114471	          0.00000000	          0.00000000	          0.00000000	          0.00000000	         -4.50992950	          0.00000000	
          1.00000000	          0.00000000	          0.00000000	          0.00000000	          0.00000000	          0.00000000	          0.00000000	         18.87166875	        509.63986625	         24.65853930	         -0.04238308	          0.00000001	         -0.14141690	          0.00000000	          0.00000000	          0.00000000	          0.00000000	         -4.65794142	          0.00000000	
          1.00400000	          0.00000000	          0.00000000	          0.00000000	          0.00000000	          0.00000000	          0.00000000	         20.18816857	        515.08544406	         25.46358912	         -0.04044660	          0.00000001	         -0.14156801	          0.00000000	          0.00000000	          0.00000000	          0.00000000	         -4.78342283	          0.00000000	
          1.00800000	          0.00000000	          0.00000000	          0.00000000	          0.00000000	          0.00000000	          0.00000000	         21.48389813	        520.80590634	         26.41821069	         -0.03831200	          0.00000001	         -0.14163169	          0.00000000	          0.00000000	          0.00000000	          0.00000000	         -4.88660444	          0.00000000	
          1.01200000	          0.00000000	          0.00000000	          0.00000000	          0.00000000	          0.00000000	          0.00000000	         22.77348508	        526.74451925	         27.46730909	         -0.03600079	          0.00000001	         -0.14163599	          0.00000000	          0.00000000	          0.00000000	          0.00000000	         -4.96978191	          0.00000000	
          1.01600000	          0.00000000	          0.00000000	          0.00000000	          0.00000000	          0.00000000	          0.00000000	         24.07634290	        532.87050674	         28.56500893	         -0.03357533	          0.00000001	         -0.14163444	          0.00000000	          0.00000000	          0.00000000	          0.00000000	         -5.03654838	          0.00000000	
          1.02000000	          0.00000000	          0.00000000	          0.00000000	          0.00000000	          0.00000000	          0.00000000	         25.40951946	        539.24499224	         29.70149454	         -0.03112663	          0.00000001	         -0.14165699	          0.00000000	          0.00000000	          0.00000000	          0.00000000	         -5.09079729	          0.00000000	
          1.02400000	          0.00000000	          0.00000000	          0.00000000	          0.00000000	          0.00000000	          0.00000000	         26.80267709	        546.01966244	         30.90003869	         -0.02873852	          0.00000001	         -0.14170723	          0.00000000	          0.00000000	          0.00000000	          0.00000000	         -5.13571547	          0.00000000	
          1.02800000	          0.00000000	          0.00000000	          0.00000000	          0.00000000	          0.00000000	          0.00000000	         28.30588095	        553.35988292	         32.19076586	         -0.02646508	          0.00000001	         -0.14178204	          0.00000000	          0.00000000	          0.00000000	          0.00000000	         -5.17316621	          0.00000000	
          1.03200000	          0.00000000	          0.00000000	          0.00000000	          0.00000000	          0.00000000	          0.00000000	         29.96946748	        561.38832271	         33.58686286	         -0.02434177	          0.00000001	         -0.14187456	          0.00000000	          0.00000000	          0.00000000	          0.00000000	         -5.20370717	          0.00000000	
          1.03600000	          0.00000000	          0.00000000	          0.00000000	          0.00000000	          0.00000000	          0.00000000	         31.81791732	        570.19564721	         35.08012569	         -0.02238593	          0.00000001	         -0.14196633	          0.00000000	          0.00000000	          0.00000000	          0.00000000	         -5.22709689	          0.00000000	
          1.04000000	          0.00000000	          0.00000000	          0.00000000	          0.00000000	          0.00000000	          0.00000000	         33.85255588	        579.85946375	         36.65860592	         -0.02057943	          0.00000001	         -0.14202268	          0.00000000	          0.00000000	          0.00000000	          0.00000000	         -5.24296909	          0.00000000	
          1.04400000	          0.00000000	          0.00000000	          0.00000000	          0.00000000	          0.00000000	          0.00000000	         36.07565066	        590.42354240	         38.32226080	         -0.01888996	          0.00000001	         -0.14201398	          0.00000000	          0.00000000	          0.00000000	          0.00000000	         -5.25152444	          0.00000000	
          1.04800000	          0.00000000	          0.00000000	          0.00000000	          0.00000000	          0.00000000	          0.00000000	         38.49693501	        601.87387293	         40.07140260	         -0.01729781	          0.00000001	         -0.14192495	          0.00000000	          0.00000000	          0.00000000	          0.00000000	         -5.25422596	          0.00000000	
          1.05200000	          0.00000000	          0.00000000	          0.00000000	          0.00000000	          0.00000000	          0.00000000	         41.11916393	        614.15434128	         41.88377204	         -0.01580491	          0.00000001	         -0.14176021	          0.00000000	          0.00000000	          0.00000000	          0.00000000	         -5.25433938	          0.00000000	
